<svg width="1920" height="1496" viewBox="0 0 1920 1496" fill="none" xmlns="http://www.w3.org/2000/svg">
<g clip-path="url(#clip0_88_167)">
<rect width="1920" height="1496" fill="white"/>
<path d="M401.489 -445.211C1226.43 359.851 2537.44 206.527 3362.4 1011.65C3107.13 1530.48 2851.85 2049.3 2596.57 2568.13C1771.59 1763.04 460.573 1916.37 -364.346 1111.26C-109.068 592.439 146.211 73.614 401.489 -445.211Z" fill="white"/>
<path d="M401.492 -445.212C1226.43 359.85 2537.45 206.526 3362.41 1011.65C3338.86 1059.52 3327.06 1083.5 3303.51 1131.36C2478.52 326.278 1167.53 479.56 342.591 -325.502C366.143 -373.369 377.94 -397.345 401.492 -445.212Z" fill="black"/>
<path d="M283.671 -205.748C1108.61 599.314 2419.63 445.99 3244.59 1251.12C3221.03 1298.98 3209.24 1322.96 3185.69 1370.82C2360.7 565.741 1049.71 719.023 224.771 -86.0396C248.323 -133.906 260.12 -157.882 283.671 -205.748Z" fill="black"/>
<path d="M165.847 33.7125C990.787 838.775 2301.78 685.493 3126.76 1490.58C3103.21 1538.44 3091.41 1562.42 3067.86 1610.29C2242.88 805.202 931.886 958.484 106.947 153.421C130.498 105.555 142.295 81.579 165.847 33.7125Z" fill="black"/>
<path d="M48.0229 273.173C872.963 1078.24 2183.96 924.954 3008.94 1730.04C2985.39 1777.9 2973.59 1801.88 2950.04 1849.75C2125.05 1044.66 814.062 1197.94 -10.8776 392.882C12.6742 345.016 24.4711 321.04 48.0229 273.173Z" fill="black"/>
<path d="M-69.8011 512.636C755.139 1317.7 2066.13 1164.42 2891.11 1969.5C2867.56 2017.37 2855.77 2041.34 2832.21 2089.21C2007.23 1284.13 696.238 1437.41 -128.702 632.345C-105.15 584.479 -93.3529 560.502 -69.8011 512.636Z" fill="black"/>
<path d="M-187.619 752.097C637.321 1557.16 1948.31 1403.88 2773.3 2208.96C2749.72 2256.87 2737.95 2280.8 2714.37 2328.71C1889.41 1523.59 578.42 1676.87 -246.541 871.849C-222.968 823.94 -211.192 800.006 -187.619 752.097Z" fill="black"/>
<path d="M-305.445 991.555C519.494 1796.62 1830.49 1643.34 2655.47 2448.42C2631.9 2496.33 2620.12 2520.26 2596.57 2568.13C1771.59 1763.04 460.573 1916.37 -364.346 1111.26C-340.794 1063.4 -329.018 1039.46 -305.445 991.555Z" fill="black"/>
<path d="M401.488 -445.211C727.442 -126.728 1131.68 49.0879 1560.1 186.337C1422.62 465.744 1285.16 745.108 1147.71 1024.47C719.287 887.222 315.053 711.406 -10.8798 392.881C126.576 113.517 264.032 -165.847 401.488 -445.211Z" fill="black"/>
<path d="M770.601 -64.8646C777.375 -50.2048 780.772 -42.9492 787.693 -28.4824C776.986 -17.6373 771.642 -12.1834 760.956 -1.3811C775.904 -3.22656 783.345 -4.19143 798.313 -6.18639C805.256 8.23762 808.716 15.3645 815.742 29.6173C818.033 14.0459 819.199 6.27047 821.489 -9.30093C836.563 -11.4033 844.068 -12.4967 859.141 -14.7058C845.479 -22.066 838.648 -25.7997 825.112 -33.4169C827.403 -48.9882 828.591 -56.8061 830.902 -72.4203C820.238 -61.5542 814.895 -56.0997 804.188 -45.2546C790.695 -52.9574 783.968 -56.905 770.601 -64.8646Z" fill="white"/>
<path d="M963.337 38.4232C970.638 52.1194 974.267 58.9037 981.608 72.4076C970.775 83.6162 965.348 89.2416 954.472 100.429C969.84 97.6207 977.577 96.1632 992.988 93.2691C1000.37 106.687 1004.09 113.407 1011.51 126.74C1013.68 111.532 1014.76 103.928 1016.88 88.6987C1032.35 85.6762 1040.11 84.1757 1055.65 81.0248C1041.44 74.7777 1034.33 71.6004 1020.23 65.1393C1022.35 49.9104 1023.45 42.2638 1025.6 26.9921C1014.74 38.2436 1009.27 43.8483 998.42 55.0998C984.336 48.4892 977.337 45.2051 963.337 38.4232Z" fill="white"/>
<path d="M1163.65 126.454C1171.28 139.358 1175.14 145.778 1182.87 158.512C1171.84 169.999 1166.35 175.753 1155.37 187.262C1171.12 183.683 1179.02 181.882 1194.79 178.26C1202.53 190.95 1206.42 197.327 1214.2 209.932C1216.18 195.003 1217.19 187.528 1219.23 172.577C1235.04 168.869 1242.95 166.962 1258.84 163.19C1244.19 157.735 1236.92 155.007 1222.33 149.424C1224.37 134.473 1225.34 126.977 1227.4 111.983C1216.36 123.513 1210.87 129.267 1199.84 140.755C1185.34 135.107 1178.09 132.23 1163.65 126.454Z" fill="white"/>
<path d="M1369.7 202.789C1377.63 215.094 1381.64 221.214 1389.59 233.476C1378.46 245.178 1372.93 251.018 1361.8 262.719C1377.87 258.605 1385.85 256.526 1401.94 252.369C1409.93 264.545 1413.9 270.645 1421.96 282.799C1423.85 268.042 1424.83 260.652 1426.72 245.894C1442.82 241.693 1450.85 239.529 1466.94 235.265C1452.03 230.431 1444.57 227.982 1429.71 223.063C1431.62 208.262 1432.59 200.872 1434.55 186.092C1423.4 197.836 1417.87 203.676 1406.74 215.377C1391.9 210.415 1384.48 207.88 1369.7 202.789Z" fill="white"/>
<path d="M636.191 -39.3143C642.733 -24.0768 646.003 -16.5653 652.587 -1.52009C642.028 9.13199 636.748 14.4583 626.167 25.0465C640.777 23.7794 648.135 23.0921 662.85 21.6109C669.476 36.5705 672.852 43.9751 679.562 58.7633C682 42.9989 683.166 35.1172 685.626 19.31C700.362 17.786 707.784 16.9703 722.625 15.2323C709.279 7.2298 702.616 3.15391 689.375 -5.06262C691.792 -20.8909 693.022 -28.7943 695.439 -44.6226C684.859 -33.9277 679.537 -28.6228 668.978 -17.9707C655.779 -26.3796 649.264 -30.6486 636.191 -39.3143Z" fill="white"/>
<path d="M824.555 72.9907C831.602 87.0939 835.168 94.1137 842.279 108.088C831.509 119.169 826.102 124.645 815.353 135.682C830.489 133.344 838.1 132.144 853.321 129.635C860.473 143.524 864.081 150.458 871.297 164.219C873.503 148.819 874.627 141.129 876.876 125.75C892.139 123.155 899.749 121.848 915.118 119.146C901.118 112.364 894.203 108.909 880.309 101.913C882.558 86.5336 883.661 78.78 885.91 63.4009C875.097 74.4601 869.713 80.0005 858.921 91.0169C845.133 83.9135 838.238 80.3081 824.555 72.9907Z" fill="white"/>
<path d="M1021.31 168.208C1028.78 181.455 1032.52 188.025 1040.09 201.165C1029.13 212.524 1023.68 218.192 1012.72 229.551C1028.34 226.335 1036.12 224.685 1051.74 221.363C1059.34 234.46 1063.12 240.944 1070.77 253.912C1072.81 238.855 1073.87 231.293 1075.93 216.193C1091.62 212.849 1099.44 211.114 1115.14 207.62C1100.72 201.801 1093.49 198.881 1079.15 192.891C1081.21 177.79 1082.27 170.229 1084.33 155.129C1073.42 166.509 1067.95 172.22 1056.99 183.579C1042.69 177.503 1035.55 174.412 1021.31 168.208Z" fill="white"/>
<path d="M1224.68 249.919C1232.49 262.481 1236.43 268.73 1244.28 281.206C1233.24 292.843 1227.73 298.64 1216.64 310.256C1232.54 306.377 1240.52 304.405 1256.44 300.483C1264.31 312.917 1268.28 319.123 1276.19 331.471C1278.16 316.648 1279.12 309.195 1281.09 294.372C1297.05 290.365 1305.04 288.393 1321.04 284.3C1306.26 279.209 1298.86 276.632 1284.15 271.412C1286.1 256.526 1287.1 249.093 1289.03 234.249C1277.99 245.886 1272.43 251.662 1261.39 263.299C1246.67 257.973 1239.36 255.331 1224.68 249.919Z" fill="white"/>
<path d="M504.391 -18.9213C510.595 -3.10544 513.74 4.76994 520.028 20.4145C509.595 30.8097 504.336 35.9863 493.904 46.3815C508.218 45.7138 515.429 45.3265 529.828 44.4875C536.18 60.0036 539.387 67.7505 545.823 83.0954C548.325 67.0958 549.597 59.1068 552.162 43.0856C566.624 42.1181 573.855 41.5813 588.444 40.4636C575.393 31.7551 568.962 27.3147 556.058 18.3064C558.602 2.32797 559.852 -5.72514 562.417 -21.7464C551.921 -11.3295 546.683 -6.08939 536.186 4.32755C523.409 -4.83089 517.021 -9.46312 504.391 -18.9213Z" fill="white"/>
<path d="M687.875 103.266C694.669 117.883 698.066 125.138 704.966 139.648C694.259 150.493 688.937 155.905 678.251 166.707C693.177 164.904 700.619 163.939 715.587 161.944C722.55 176.326 725.989 183.495 733.016 197.748C735.306 182.177 736.493 174.358 738.784 158.787C753.837 156.727 761.342 155.634 776.436 153.382C762.774 146.022 755.942 142.288 742.386 134.714C744.697 119.1 745.885 111.282 748.197 95.6679C737.511 106.577 732.19 111.988 721.462 122.876C707.989 115.131 701.242 111.226 687.875 103.266Z" fill="white"/>
<path d="M880.609 206.554C887.931 220.208 891.559 226.992 898.901 240.495C888.047 251.747 882.641 257.329 871.765 268.517C887.133 265.709 894.849 264.294 910.281 261.357C917.643 274.818 921.378 281.495 928.805 294.828C930.969 279.62 932.051 272.015 934.173 256.787C949.646 253.764 957.405 252.263 972.92 249.155C958.732 242.865 951.626 239.689 937.501 233.27C939.644 217.999 940.727 210.395 942.87 195.123C932.016 206.375 926.546 211.979 915.713 223.188C901.608 216.62 894.63 213.293 880.609 206.554Z" fill="white"/>
<path d="M1080.92 294.587C1088.58 307.448 1092.44 313.868 1100.14 326.644C1089.12 338.132 1083.63 343.886 1072.65 355.394C1088.4 351.815 1096.3 350.015 1112.09 346.35C1119.81 359.083 1123.71 365.418 1131.48 378.065C1133.47 363.093 1134.49 355.618 1136.53 340.667C1152.34 336.959 1160.25 335.052 1176.14 331.28C1161.49 325.825 1154.22 323.098 1139.63 317.515C1141.66 302.564 1142.64 295.067 1144.68 280.116C1133.66 291.604 1128.17 297.358 1117.14 308.845C1102.64 303.198 1095.36 300.363 1080.92 294.587Z" fill="white"/>
<path d="M1286.99 370.875C1294.93 383.18 1298.91 389.343 1306.89 401.562C1295.76 413.264 1290.23 419.104 1279.1 430.805C1295.16 426.69 1303.15 424.612 1319.19 420.433C1327.21 432.674 1331.2 438.73 1339.26 450.885C1341.15 436.127 1342.12 428.737 1344.01 413.98C1360.12 409.779 1368.13 407.658 1384.21 403.393C1369.33 398.516 1361.87 396.068 1347 391.148C1348.92 376.347 1349.87 369 1351.82 354.22C1340.7 365.922 1335.14 371.804 1324.04 383.463C1309.19 378.5 1301.77 375.966 1286.99 370.875Z" fill="white"/>
<path d="M377.289 -2.06295C383.177 14.3951 386.174 22.5707 392.147 38.8575C381.82 49.0386 376.623 54.0862 366.317 64.2245C380.315 64.199 387.358 64.1543 401.462 63.9147C407.497 80.073 410.558 88.1203 416.699 104.065C419.349 87.872 420.64 79.7327 423.311 63.4974C437.478 63.1294 444.604 62.9131 458.835 62.4166C446.184 52.8946 439.921 48.1121 427.396 38.3332C430.067 22.0978 431.402 13.98 434.051 -2.31924C423.66 7.88363 418.507 12.9528 408.179 23.1339C395.738 13.1837 389.539 8.16585 377.289 -2.06295Z" fill="white"/>
<path d="M555.645 130.578C562.165 145.752 565.458 153.328 572.063 168.33C561.461 178.961 556.181 184.287 545.622 194.939C560.253 193.629 567.567 192.921 582.325 191.461C588.972 206.377 592.328 213.825 599.059 228.57C601.454 212.785 602.663 204.924 605.059 189.138C619.859 187.593 627.237 186.756 642.121 185.039C628.732 177.015 622.048 172.982 608.829 164.723C611.225 148.938 612.455 141.034 614.914 125.227C604.291 135.901 599.012 141.227 588.41 151.858C575.233 143.513 568.675 139.223 555.645 130.578Z" fill="white"/>
<path d="M744.06 242.641C751.171 256.722 754.673 263.764 761.847 277.717C751.035 288.776 745.671 294.274 734.879 305.29C750.016 302.952 757.647 301.708 772.846 299.242C780.063 313.11 783.628 320.022 790.886 333.804C793.093 318.404 794.217 310.715 796.424 295.315C811.686 292.72 819.339 291.433 834.665 288.711C820.708 281.95 813.73 278.516 799.878 271.541C802.105 256.098 803.23 248.408 805.457 232.965C794.687 244.046 789.259 249.565 778.49 260.645C764.701 253.542 757.807 249.937 744.06 242.641Z" fill="white"/>
<path d="M940.938 337.653C948.406 350.9 952.183 357.492 959.714 370.61C948.818 381.947 943.307 387.637 932.41 398.975C947.968 395.781 955.789 394.152 971.41 390.829C978.983 403.862 982.802 410.368 990.418 423.315C992.499 408.279 993.517 400.697 995.619 385.617C1011.26 382.252 1019.12 380.537 1034.83 377.043C1020.37 371.203 1013.18 368.305 998.799 362.294C1000.9 347.215 1001.94 339.696 1004.02 324.552C993.039 335.954 987.591 341.623 976.652 353.046C962.316 346.949 955.168 343.857 940.938 337.653Z" fill="white"/>
<path d="M1144.39 419.253C1152.22 431.772 1156.14 438.063 1163.99 450.54C1152.9 462.155 1147.39 467.952 1136.33 479.525C1152.27 475.668 1160.19 473.718 1176.17 469.775C1184.04 482.208 1188.01 488.414 1195.92 500.762C1197.85 485.918 1198.85 478.485 1200.78 463.642C1216.78 459.656 1224.75 457.62 1240.77 453.591C1225.95 448.479 1218.55 445.901 1203.83 440.682C1205.77 425.838 1206.76 418.406 1208.76 403.541C1197.67 415.157 1192.16 420.953 1181.08 432.569C1166.38 427.307 1159.02 424.644 1144.39 419.253Z" fill="white"/>
<path d="M251.96 6.52422C257.491 23.7101 260.298 32.2703 265.933 49.2421C255.69 59.1452 250.6 64.0864 240.377 73.9467C254.082 74.6273 260.912 74.9036 274.722 75.3701C280.421 92.2135 283.312 100.603 289.116 117.232C291.849 100.762 293.248 92.5155 296.002 76.0022C309.875 76.3402 316.79 76.4455 330.747 76.6123C318.475 66.3196 312.381 61.0876 300.32 50.4734C303.074 33.9601 304.494 25.6712 307.311 9.13615C297.047 19.0821 291.956 24.0229 281.712 33.9261C269.736 23.1407 263.768 17.6521 251.96 6.52422Z" fill="white"/>
<path d="M424.566 150.747C430.813 166.583 433.914 174.437 440.267 190.06C429.77 200.477 424.554 205.675 414.079 216.049C428.414 215.339 435.625 214.951 450.045 214.07C456.44 229.607 459.626 237.29 466.062 252.634C468.606 236.656 469.878 228.667 472.379 212.667C486.862 211.657 494.136 211.141 508.683 210.003C495.674 201.315 489.179 196.897 476.318 187.91C478.819 171.91 480.112 163.878 482.634 147.836C472.16 158.317 466.9 163.493 456.446 173.931C443.648 164.815 437.26 160.183 424.566 150.747Z" fill="white"/>
<path d="M608.239 272.602C615.033 287.219 618.472 294.495 625.33 308.984C614.665 319.85 609.301 325.241 598.636 336.107C613.541 334.24 621.047 333.253 636.014 331.259C642.935 345.619 646.437 352.766 653.421 366.998C655.754 351.447 656.878 343.651 659.212 328.101C674.243 325.978 681.79 324.905 696.885 322.653C683.159 315.315 676.391 311.56 662.771 304.007C665.125 288.414 666.292 280.639 668.625 264.982C657.896 275.87 652.554 281.324 641.889 292.19C628.353 284.466 621.606 280.562 608.239 272.602Z" fill="white"/>
<path d="M801.14 375.648C808.419 389.28 812.091 396.085 819.433 409.589C808.536 420.82 803.129 426.402 792.296 437.611C807.664 434.802 815.338 433.367 830.812 430.451C838.196 443.869 841.91 450.589 849.357 463.879C851.479 448.65 852.56 441.046 854.725 425.838C870.199 422.815 877.914 421.294 893.494 418.164C879.241 411.896 872.179 408.74 858.011 402.3C860.196 387.05 861.236 379.425 863.422 364.174C852.525 375.405 847.098 381.03 836.202 392.261C822.139 385.714 815.097 382.409 801.14 375.648Z" fill="white"/>
<path d="M1001.53 463.513C1009.19 476.374 1013.03 482.73 1020.78 495.527C1009.75 507.015 1004.26 512.769 993.238 524.256C1008.99 520.677 1016.89 518.876 1032.68 515.212C1040.44 527.966 1044.3 534.28 1052.13 546.905C1054.11 531.976 1055.13 524.5 1057.12 509.528C1072.93 505.821 1080.88 503.935 1096.73 500.142C1082.12 494.708 1074.81 491.96 1060.26 486.398C1062.25 471.426 1063.27 463.95 1065.27 448.978C1054.29 460.487 1048.8 466.241 1037.75 477.771C1023.25 472.123 1016 469.246 1001.53 463.513Z" fill="white"/>
<path d="M1207.63 539.654C1215.56 551.959 1219.57 558.08 1227.54 570.299C1216.45 582.021 1210.86 587.883 1199.79 599.562C1215.79 595.47 1223.85 593.369 1239.89 589.191C1247.86 601.41 1251.89 607.488 1259.91 619.622C1261.84 604.885 1262.77 597.474 1264.73 582.694C1280.77 578.516 1288.84 576.373 1304.93 572.109C1290.02 567.274 1282.56 564.825 1267.66 559.884C1269.61 545.105 1270.59 537.715 1272.48 522.957C1261.35 534.658 1255.82 540.498 1244.71 552.263C1229.85 547.237 1222.45 544.766 1207.63 539.654Z" fill="white"/>
<path d="M172.114 173.469C177.665 190.612 180.473 199.173 186.108 216.145C175.886 226.005 170.774 230.989 160.572 240.806C174.277 241.487 181.108 241.763 194.917 242.23C200.616 259.073 203.466 267.442 209.313 284.092C212.066 267.579 213.464 259.332 216.218 242.819C230.07 243.2 237.006 243.262 250.964 243.429C238.691 233.136 232.597 227.905 220.515 217.333C223.29 200.777 224.689 192.531 227.507 175.996C217.242 185.942 212.152 190.883 201.887 200.829C189.911 190.043 183.943 184.554 172.114 173.469Z" fill="white"/>
<path d="M344.844 317.431C351.091 333.268 354.215 341.081 360.524 356.682C350.07 367.12 344.854 372.318 334.358 382.735C348.715 381.981 355.903 381.637 370.345 380.712C376.739 396.249 379.926 403.932 386.383 419.234C388.906 403.299 390.178 395.31 392.7 379.267C407.162 378.3 414.456 377.741 429.003 376.602C415.994 367.915 409.5 363.497 396.618 354.552C399.119 338.553 400.412 330.52 402.934 314.478C392.459 324.959 387.2 330.135 376.746 340.573C363.884 331.479 357.538 326.868 344.844 317.431Z" fill="white"/>
<path d="M528.599 439.111C535.393 453.729 538.833 461.005 545.712 475.451C535.047 486.317 529.683 491.707 519.019 502.573C533.923 500.707 541.428 499.72 556.417 497.682C563.337 512.042 566.84 519.19 573.824 533.422C576.158 517.872 577.282 510.075 579.615 494.525C594.646 492.402 602.193 491.329 617.287 489.077C603.582 481.696 596.774 478.026 583.174 470.431C585.507 454.881 586.652 447.041 589.006 431.448C578.278 442.336 572.935 447.791 562.271 458.657C548.713 450.976 541.987 447.028 528.599 439.111Z" fill="white"/>
<path d="M721.586 541.991C728.865 555.624 732.535 562.429 739.877 575.933C729.001 587.12 723.575 592.746 712.699 603.934C728.131 601.103 735.804 599.667 751.278 596.751C758.662 610.17 762.353 616.825 769.822 630.179C771.944 614.95 773.027 607.346 775.149 592.117C790.665 589.116 798.402 587.552 813.96 584.464C799.708 578.196 792.602 575.019 778.477 568.601C780.62 553.329 781.703 545.725 783.888 530.475C772.992 541.705 767.564 547.331 756.667 558.561C742.584 552.057 735.564 548.709 721.586 541.991Z" fill="white"/>
<path d="M922.017 629.655C929.718 642.538 933.535 648.936 941.235 661.712C930.255 673.221 924.765 678.975 913.742 690.462C929.489 686.883 937.395 685.083 953.205 681.375C960.969 694.129 964.829 700.443 972.613 713.047C974.63 698.139 975.65 690.664 977.645 675.692C993.477 671.941 1001.4 670.099 1017.28 666.263C1002.65 660.872 995.33 658.123 980.784 652.561C982.779 637.589 983.799 630.114 985.794 615.142C974.793 626.693 969.259 632.426 958.279 643.934C943.71 638.308 936.501 635.452 922.017 629.655Z" fill="white"/>
<path d="M1128.17 705.779C1136.13 718.041 1140.11 724.204 1148.09 736.423C1137 748.146 1131.42 753.965 1120.34 765.687C1136.36 761.551 1144.39 759.494 1160.46 755.273C1168.43 767.492 1172.46 773.569 1180.47 785.703C1182.41 770.966 1183.34 763.556 1185.28 748.819C1201.34 744.597 1209.41 742.455 1225.5 738.19C1210.55 733.335 1203.13 730.907 1188.22 725.966C1190.16 711.229 1191.13 703.84 1193.05 689.039C1181.92 700.74 1176.36 706.623 1165.28 718.346C1150.39 713.362 1142.97 710.827 1128.17 705.779Z" fill="white"/>
<path d="M87.7275 338.919C93.2577 356.105 96.0229 364.644 101.701 381.637C91.4575 391.541 86.367 396.481 76.1653 406.299C89.8488 407.022 96.6794 407.299 110.468 407.808C116.167 424.651 119.037 432.977 124.863 449.67C127.617 433.157 129.015 424.91 131.769 408.397C145.621 408.778 152.536 408.883 166.451 409.029C154.242 398.715 148.148 393.482 136.087 382.868C138.841 366.355 140.261 358.066 143.079 341.531C132.814 351.477 127.724 356.418 117.48 366.321C105.503 355.536 99.5355 350.047 87.7275 338.919Z" fill="white"/>
<path d="M260.293 483.227C266.54 499.064 269.663 506.876 276.015 522.498C265.519 532.915 260.302 538.113 249.826 548.487C264.141 547.819 271.352 547.431 285.772 546.55C292.167 562.087 295.353 569.77 301.789 585.115C304.333 569.137 305.604 561.147 308.105 545.148C322.589 544.138 329.863 543.622 344.409 542.483C331.4 533.796 324.906 529.377 312.044 520.39C314.567 504.347 315.839 496.359 318.361 480.316C307.907 490.754 302.627 495.974 292.173 506.412C279.375 497.296 272.986 492.663 260.293 483.227Z" fill="white"/>
<path d="M443.938 605.122C450.732 619.739 454.172 627.015 461.03 641.504C450.365 652.37 445.001 657.76 434.357 668.584C449.241 666.76 456.746 665.773 471.714 663.778C478.634 678.138 482.137 685.286 489.121 699.518C491.454 683.967 492.578 676.171 494.912 660.621C509.943 658.497 517.49 657.425 532.563 655.216C518.858 647.834 512.069 644.122 498.47 636.527C500.824 620.933 501.991 613.158 504.324 597.501C493.595 608.389 488.253 613.844 477.588 624.71C464.052 616.986 457.305 613.082 443.938 605.122Z" fill="white"/>
<path d="M636.82 708.218C644.099 721.85 647.77 728.656 655.112 742.16C644.215 753.39 638.81 758.973 627.934 770.161C643.345 767.373 651.017 765.937 666.491 763.021C673.875 776.439 677.589 783.159 685.037 796.449C687.138 781.262 688.22 773.659 690.363 758.387C705.858 755.428 713.594 753.864 729.152 750.777C714.921 744.466 707.817 741.289 693.691 734.871C695.834 719.599 696.916 711.995 699.102 696.744C688.205 707.974 682.778 713.6 671.881 724.831C657.819 718.284 650.777 714.979 636.82 708.218Z" fill="white"/>
<path d="M837.162 796.048C844.862 808.93 848.68 815.329 856.423 828.126C845.4 839.614 839.91 845.368 828.887 856.855C844.634 853.276 852.539 851.476 868.329 847.811C876.093 860.565 879.953 866.879 887.737 879.484C889.755 864.575 890.774 857.1 892.77 842.128C908.58 838.42 916.527 836.534 932.38 832.741C917.77 827.307 910.454 824.559 895.908 818.997C897.903 804.025 898.922 796.549 900.918 781.577C889.937 793.086 884.404 798.819 873.403 810.37C858.898 804.722 851.646 801.845 837.162 796.048Z" fill="white"/>
<path d="M1043.29 872.263C1051.22 884.568 1055.21 890.731 1063.18 902.951C1052.1 914.673 1046.52 920.492 1035.44 932.214C1051.46 928.079 1059.49 926.021 1075.53 921.843C1083.53 934.019 1087.56 940.097 1095.55 952.273C1097.51 937.494 1098.42 930.126 1100.37 915.346C1116.44 911.125 1124.49 909.025 1140.57 904.76C1125.65 899.862 1118.23 897.435 1103.32 892.494C1105.25 877.757 1106.23 870.367 1108.14 855.566C1097.01 867.268 1091.46 873.15 1080.37 884.872C1065.49 879.889 1058.07 877.354 1043.29 872.263Z" fill="white"/>
<path d="M296.523 163.58C302.39 180.081 305.344 188.235 311.38 204.5C301.01 214.66 295.836 219.772 285.487 229.89C299.55 229.842 306.549 229.776 320.696 229.558C326.732 245.716 329.749 253.741 335.933 269.707C338.539 253.493 339.875 245.376 342.502 229.119C356.712 228.772 363.796 228.535 378.047 227.996C365.397 218.581 359.113 213.734 346.61 204.019C349.258 187.72 350.594 179.602 353.285 163.324C342.894 173.527 337.719 178.639 327.349 188.799C314.951 178.869 308.773 173.809 296.523 163.58Z" fill="white"/>
<path d="M474.859 296.158C481.422 311.352 484.671 318.907 491.319 333.931C480.717 344.562 475.437 349.888 464.835 360.519C479.465 359.209 486.824 358.522 501.539 357.04C508.228 371.978 511.561 379.362 518.292 394.107C520.71 378.386 521.94 370.482 524.336 354.696C539.093 353.13 546.514 352.314 561.356 350.576C547.989 342.616 541.325 338.54 528.085 330.324C530.481 314.538 531.711 306.635 534.128 290.807C523.547 301.502 518.225 306.807 507.666 317.459C494.446 309.093 487.931 304.824 474.859 296.158Z" fill="white"/>
<path d="M663.364 408.159C670.411 422.262 673.978 429.281 681.088 443.256C670.339 454.294 664.911 459.813 654.162 470.85C669.319 468.47 676.93 467.269 692.151 464.76C699.303 478.649 702.933 485.54 710.148 499.301C712.397 483.922 713.479 476.211 715.728 460.832C730.969 458.28 738.643 456.951 753.969 454.228C739.97 447.446 733.033 444.034 719.139 437.038C721.388 421.659 722.513 413.969 724.74 398.526C713.928 409.585 708.543 415.125 697.773 426.206C683.942 419.081 677.047 415.476 663.364 408.159Z" fill="white"/>
<path d="M860.239 503.165C867.728 516.369 871.505 522.96 879.036 536.079C868.076 547.438 862.607 553.149 851.668 564.465C867.289 561.249 875.047 559.642 890.731 556.298C898.284 569.374 902.103 575.879 909.719 588.827C911.778 573.726 912.818 566.208 914.876 551.107C930.582 547.72 938.403 545.985 954.151 542.512C939.667 536.715 932.456 533.752 918.099 527.805C920.158 512.704 921.219 505.143 923.321 490.064C912.361 501.423 906.892 507.134 895.932 518.493C881.617 512.46 874.469 509.369 860.239 503.165Z" fill="white"/>
<path d="M1063.67 584.702C1071.54 597.242 1075.43 603.513 1083.32 616.01C1072.25 627.583 1066.72 633.423 1055.65 644.996C1071.55 641.117 1079.52 639.188 1095.45 635.224C1103.36 647.678 1107.29 653.863 1115.2 666.211C1117.17 651.388 1118.17 643.956 1120.1 629.112C1136.06 625.105 1144.07 623.09 1160.05 619.04C1145.27 613.949 1137.87 611.372 1123.16 606.153C1125.11 591.266 1126.11 583.833 1128.04 568.99C1117 580.626 1111.44 586.403 1100.4 598.039C1085.71 592.777 1078.35 590.114 1063.67 584.702Z" fill="white"/>
<path d="M213.757 330.314C219.646 346.772 222.643 354.948 228.616 371.234C218.288 381.416 213.092 386.464 202.785 396.602C216.784 396.576 223.826 396.531 237.93 396.292C243.966 412.45 247.027 420.497 253.168 436.441C255.817 420.249 257.109 412.11 259.779 395.874C273.947 395.506 281.073 395.29 295.325 394.751C282.652 385.272 276.39 380.489 263.865 370.71C266.536 354.475 267.871 346.357 270.52 330.058C260.149 340.218 254.975 345.33 244.648 355.511C232.207 345.561 226.008 340.543 213.757 330.314Z" fill="white"/>
<path d="M392.106 462.947C398.626 478.121 401.919 485.697 408.523 500.699C397.922 511.33 392.642 516.656 382.083 527.308C396.714 525.998 404.028 525.29 418.786 523.83C425.433 538.746 428.789 546.194 435.52 560.94C437.915 545.154 439.123 537.293 441.519 521.508C456.34 519.919 463.698 519.125 478.582 517.408C465.193 509.385 458.53 505.309 445.29 497.092C447.686 481.307 448.916 473.403 451.375 457.596C440.752 468.27 435.473 473.596 424.871 484.227C411.715 475.839 405.136 471.592 392.106 462.947Z" fill="white"/>
<path d="M580.585 574.991C587.632 589.094 591.155 596.093 598.308 610.089C587.496 621.148 582.132 626.645 571.341 637.661C586.541 635.302 594.108 634.08 609.308 631.614C616.524 645.481 620.089 652.394 627.348 666.176C629.554 650.776 630.679 643.086 632.885 627.686C648.148 625.092 655.8 623.805 671.126 621.082C657.169 614.321 650.212 610.845 636.339 603.913C638.567 588.47 639.691 580.78 641.918 565.337C631.148 576.418 625.763 581.958 614.951 593.017C601.162 585.914 594.268 582.308 580.585 574.991Z" fill="white"/>
<path d="M777.402 670.021C784.892 683.225 788.669 689.816 796.2 702.935C785.283 714.315 779.771 720.005 768.875 731.342C784.433 728.148 792.254 726.519 807.874 723.197C815.448 736.229 819.267 742.735 826.883 755.682C828.963 740.646 829.982 733.064 832.063 718.027C847.726 714.619 855.589 712.904 871.294 709.411C856.873 703.592 849.642 700.672 835.264 694.661C837.365 679.582 838.405 672.063 840.485 656.92C829.503 668.322 824.056 673.99 813.117 685.413C798.781 679.316 791.676 676.246 777.402 670.021Z" fill="white"/>
<path d="M980.858 751.62C988.685 764.139 992.608 770.43 1000.46 782.906C989.39 794.479 983.858 800.32 972.835 811.914C988.73 808.035 996.656 806.085 1012.64 802.142C1020.5 814.575 1024.47 820.781 1032.38 833.129C1034.31 818.285 1035.31 810.853 1037.24 796.009C1053.24 792.023 1061.21 789.987 1077.23 785.958C1062.41 780.846 1055.06 778.29 1040.3 773.049C1042.29 758.184 1043.23 750.773 1045.23 735.908C1034.14 747.523 1028.63 753.32 1017.54 764.936C1002.85 759.674 995.489 757.01 980.858 751.62Z" fill="white"/>
</g>
<defs>
<clipPath id="clip0_88_167">
<rect width="1920" height="1496" fill="white"/>
</clipPath>
</defs>
</svg>
