<svg width="1920" height="1200" viewBox="0 0 1920 1200" fill="none" xmlns="http://www.w3.org/2000/svg">
<g clip-path="url(#clip0_91_389)">
<rect width="1920" height="1200" fill="white"/>
<path d="M1379.83 -16.7938L852.039 45.4132L864.881 154.403L2302 -15.0613V-16.7938H1379.83Z" fill="black"/>
<path d="M890.595 372.316L2301.99 205.876V95.3912L877.719 263.36L890.595 372.316Z" fill="black"/>
<path d="M916.28 590.227L2301.99 426.844V316.358L903.438 481.27L916.28 590.227Z" fill="black"/>
<path d="M-42 924.197L2302 647.782V537.331L-42 813.712V924.197Z" fill="black"/>
<path d="M-42 1145.13L2302 868.749V758.265L-42 1034.68V1145.13Z" fill="black"/>
<path d="M1216.52 1217.7L2302 1089.69V979.236L279.605 1217.7H1216.52Z" fill="black"/>
<path d="M98.0426 562.538L104.022 575.55L111.394 591.517L143.092 587.78L119.65 609.422L133.002 638.436L105.143 622.808L81.7007 644.484L87.9521 613.16L60.0931 597.565L91.7911 593.828L95.2566 576.569L98.0426 562.538ZM34.7822 572.696L6.92314 557.067L-16.5192 578.743L-10.2681 547.419L-38.1271 531.825L-6.42873 528.088L-0.177639 496.763L13.1742 525.777L44.8726 522.04L21.4303 543.682L34.7822 572.696ZM44.3288 444.986L76.0269 441.249L82.2783 409.924L95.6302 438.939L127.328 435.201L103.852 456.843L107.453 464.657L117.204 485.857L89.3791 470.229L65.9368 491.905L70.4891 469.006L72.154 460.58L44.3288 444.986ZM160.895 323.562L171.495 346.63L174.247 352.576L205.945 348.839L182.503 370.48L195.855 399.461L167.996 383.866L144.553 405.508L150.805 374.217L122.946 358.623L154.644 354.886L155.935 348.464L160.895 323.562ZM97.8047 335.487L69.9457 319.858L46.5033 341.534L52.7544 310.209L24.8954 294.615L56.5938 290.878L62.8449 259.588L76.1968 288.568L107.895 284.831L84.4528 306.472L97.8047 335.487ZM104.701 208.286L136.399 204.549L142.617 173.259L155.969 202.239L187.667 198.502L164.225 220.177L171.597 236.145L177.577 249.158L157.328 237.81L149.751 233.563L143.33 239.475L126.275 255.205L129.095 241.14L132.527 223.914L104.701 208.286ZM8.72372 144.856L4.20519 142.342L35.9032 138.605L42.1205 107.315L55.4724 136.294L87.1708 132.557L83.3994 136.057L63.7284 154.199L77.0803 183.214L49.2551 167.585L25.8128 189.261L32.03 157.936L8.72372 144.856ZM122.368 20.2717L122.674 20.9512L135.72 49.286L167.418 45.5488L143.942 67.1909L157.294 96.1707L129.469 80.5763L106.027 102.218L112.244 70.9281L84.4186 55.3337L116.117 51.5965L122.198 21.0196L122.368 20.2717ZM214.371 117.575L220.622 86.2504L233.974 115.23L265.672 111.493L261.867 115.026L242.23 133.169L255.582 162.149L227.723 146.555L204.28 168.196L210.532 136.906L187.191 123.826L182.673 121.312L214.371 117.575ZM300.836 -0.757889L301.142 -0.0784008L314.187 28.2219L345.886 24.4847L322.444 46.1606L335.795 75.1404L307.936 59.5467L284.494 81.1881L290.745 49.8978L262.886 34.2696L294.585 30.5324L300.7 -0.0445591L300.836 -0.757889ZM392.872 96.5104L399.09 65.2201L412.442 94.2006L444.14 90.4634L440.335 93.9623L420.697 112.105L434.049 141.119L406.224 125.491L382.748 147.166L388.999 115.876L365.659 102.762L361.174 100.248L392.872 96.5104ZM571.34 75.4801L577.557 44.156L590.909 73.1703L622.607 69.4331L618.836 72.9321L599.165 91.0745L612.517 120.055L584.692 104.461L561.249 126.102L567.467 94.8117L544.16 81.7316L539.642 79.2173L571.34 75.4801ZM749.807 54.416L756.059 23.1257L769.411 52.1061L801.109 48.369L797.304 51.8679L777.666 70.0104L791.018 99.0247L763.159 83.4303L739.717 105.072L745.968 73.7476L722.628 60.6674L718.109 58.1532L749.807 54.416ZM713.013 186.033L692.765 174.685L685.188 170.405L678.767 176.35L661.712 192.081L664.532 178.015L667.963 160.756L640.138 145.162L671.836 141.425L678.053 110.134L691.406 139.114L723.104 135.377L699.661 157.019L707.034 172.987L713.013 186.033ZM811.709 251.298L783.85 235.669L760.407 257.345L766.659 226.055L738.834 210.427L770.532 206.69L776.749 175.399L790.101 204.379L821.799 200.642L798.357 222.318L811.709 251.298ZM709.684 289.417L741.382 285.68L717.939 307.355L731.291 336.336L703.432 320.741L679.99 342.384L686.241 311.093L658.382 295.464L690.08 291.727L691.371 285.34L696.332 260.437L706.932 283.472L709.684 289.417ZM831.142 401.669L803.283 386.041L779.841 407.716L784.393 384.817L786.092 376.392L758.233 360.797L789.931 357.06L796.182 325.77L809.534 354.75L841.233 351.013L817.79 372.655L821.392 380.469L831.142 401.669ZM825.299 507.329L856.997 503.592L833.554 525.267L846.906 554.248L819.081 538.653L795.639 560.295L801.856 529.005L774.031 513.376L805.729 509.639L809.161 492.381L811.981 478.349L817.96 491.361L825.299 507.329ZM270.293 572.798L273.724 555.538L276.544 541.474L282.524 554.485L289.862 570.487L321.56 566.75L298.118 588.392L311.47 617.372L283.645 601.778L260.202 623.42L266.42 592.129L238.594 576.535L270.293 572.798ZM172.039 507.023L178.29 475.733L191.642 504.713L223.34 500.976L199.898 522.652L213.25 551.631L185.391 536.038L161.948 557.679L168.2 526.389L140.375 510.761L172.039 507.023ZM339.363 302.531L349.997 325.566L352.715 331.512L384.413 327.775L360.97 349.45L374.322 378.43L346.463 362.836L323.021 384.477L329.272 353.187L301.447 337.559L333.145 333.822L334.402 327.4L339.363 302.531ZM235.061 269.814L241.312 238.523L254.665 267.538L286.363 263.801L262.92 285.442L276.272 314.422L248.413 298.828L224.971 320.47L231.222 289.179L203.397 273.551L235.061 269.814ZM633.241 272.328L605.382 256.734L581.94 278.376L588.191 247.085L560.332 231.491L592.03 227.754L598.282 196.429L611.633 225.443L643.332 221.706L619.889 243.348L633.241 272.328ZM531.182 310.481L562.88 306.744L539.438 328.386L552.79 357.4L524.965 341.772L501.522 363.448L507.74 332.123L479.915 316.529L511.613 312.791L512.87 306.371L517.864 281.501L528.464 304.536L531.182 310.481ZM642.89 401.533L652.641 422.699L624.816 407.105L601.373 428.746L605.926 405.881L607.591 397.456L579.765 381.828L611.464 378.091L617.715 346.8L631.067 375.78L662.765 372.043L639.289 393.719L642.89 401.533ZM748.686 488.507L720.827 472.879L697.385 494.554L703.636 463.23L675.811 447.636L707.509 443.899L713.726 412.608L727.079 441.589L758.777 437.852L735.334 459.493L748.686 488.507ZM350.54 485.993L356.792 454.669L370.11 483.683L401.808 479.945L378.365 501.588L391.717 530.602L363.892 514.974L340.45 536.649L346.667 505.325L318.842 489.73L350.54 485.993ZM570.219 509.538L542.36 493.943L518.917 515.585L525.169 484.294L497.31 468.666L529.008 464.929L535.259 433.639L548.611 462.618L580.309 458.881L556.867 480.557L570.219 509.538ZM454.74 293.392L426.915 277.764L403.472 299.44L409.69 268.115L381.865 252.521L413.563 248.784L419.814 217.493L433.166 246.474L464.83 242.736L441.388 264.378L454.74 293.392ZM401.298 402.892L432.996 399.155L439.213 367.83L452.565 396.844L484.264 393.107L460.821 414.749L464.422 422.563L474.173 443.763L446.348 428.134L422.872 449.81L427.458 426.911L429.123 418.486L401.298 402.892ZM468.364 549.423L500.062 545.686L476.619 567.362L489.971 596.342L462.112 580.714L438.67 602.389L444.921 571.099L417.062 555.471L448.76 551.734L452.192 534.474L455.011 520.443L460.991 533.455L468.364 549.423ZM646.831 528.393L678.529 524.656L655.087 546.298L668.439 575.278L640.58 559.684L617.137 581.325L623.389 550.035L595.564 534.44L627.262 530.703L630.693 513.445L633.479 499.379L639.492 512.391L646.831 528.393ZM461.636 166.192L493.335 162.455L499.586 131.164L512.938 160.179L544.636 156.408L521.194 178.083L528.532 194.051L534.546 207.063L514.297 195.716L506.687 191.469L500.3 197.381L483.244 213.111L486.064 199.045L489.495 181.82L461.636 166.192ZM283.169 187.256L314.867 183.519L321.118 152.228L334.47 181.209L366.168 177.472L342.726 199.113L350.065 215.081L356.044 228.127L335.829 216.78L328.219 212.499L321.798 218.411L304.777 234.175L307.562 220.11L311.028 202.85L283.169 187.256ZM222.796 423.922L254.495 420.185L260.746 388.894L274.098 417.874L305.796 414.137L282.354 435.813L285.955 443.593L295.706 464.793L267.847 449.199L244.404 470.841L248.957 447.976L250.655 439.55L222.796 423.922ZM903.44 481.271L890.597 372.315L877.721 263.359L864.879 154.403L852.036 45.4128L844.698 -16.7942H702.005L679.378 4.06621L692.73 33.0466L664.906 17.4523L641.463 39.0937L647.68 7.8034L619.855 -7.82483L651.553 -11.562L652.607 -16.7942H481.614L492.655 7.19159L524.353 3.45441L500.911 25.0965L514.263 54.1108L486.438 38.4825L462.962 60.1578L469.213 28.8337L441.388 13.2393L473.086 9.50212L478.318 -16.7942H442.95H413.732L415.227 -13.5328L416.009 -11.8679L413.427 -13.3284L407.21 -16.7942H376.633L366.916 -7.85867L364.707 -5.82021L365.081 -7.62112L366.916 -16.7942H225.548L236.76 7.49749L237.541 9.16237L234.925 7.70121L209.682 -6.43201L188.414 13.2055L186.24 15.2101L186.614 13.4092L192.491 -16.0809L191.166 -16.7942H65.2231L45.6878 1.21223L58.2925 28.5616L59.0397 30.2265L56.4578 28.7653L31.2148 14.5983L9.94667 34.2357L7.7725 36.2742L8.11225 34.4733L13.9898 4.94941L-13.8354 -10.645L17.863 -14.3822L18.3384 -16.7942H-42V40.385V70.2486L-11.0833 66.5791L-34.5256 88.255L-21.1738 117.235L-42 105.547V150.836V225.206L-35.8508 194.323L-22.4989 223.303L9.1995 219.566L-14.2428 241.208L-6.9045 257.176L-0.890969 270.222L-21.1399 258.874L-28.75 254.594L-35.1371 260.505L-42 266.858V371.805V378.057L-23.8237 375.916L-22.5666 369.495L-17.6064 344.626L-6.97252 367.66L-4.25457 373.606L27.4435 369.868L4.00115 391.544L17.3534 420.525L-10.4718 404.93L-33.9142 426.572L-27.6969 395.281L-42 387.23V482.29V592.775V609.626L-35.375 608.844L-42 614.96V703.226L916.282 590.227L903.44 481.271Z" fill="black"/>
<path d="M-42 1034.68L2302 758.265V647.78L-42 924.196V1034.68Z" fill="white"/>
<path d="M903.44 481.271L2302 316.36V205.875L890.598 372.316L903.44 481.271Z" fill="white"/>
<path d="M864.879 154.403L877.721 263.358L2302 95.3895V-15.0618L864.879 154.403Z" fill="white"/>
<path d="M916.282 590.229L-42 703.227V813.712L2302 537.33V426.846L916.282 590.229Z" fill="white"/>
<path d="M1379.82 -16.7939H844.691L852.03 45.4131L1379.82 -16.7939Z" fill="white"/>
<path d="M-42 1217.7H279.602L2302 979.236V868.751L-42 1145.13V1217.7Z" fill="white"/>
<path d="M8.11563 34.4745L7.77589 36.2754L9.95005 34.2369L31.2182 14.5995L56.4611 28.7665L59.0431 30.2277L58.2959 28.5628L45.6912 1.21341L65.2265 -16.793H38.4886L37.4355 -16.6908L37.4016 -16.793H18.3418L17.8664 -14.381L-13.832 -10.6438L13.9931 4.95059L8.11563 34.4745Z" fill="white"/>
<path d="M209.685 -6.43018L234.927 7.70304L237.544 9.16421L236.762 7.49933L225.551 -16.7924H191.168L192.494 -16.079L186.616 13.411L186.242 15.2119L188.417 13.2073L209.685 -6.43018Z" fill="white"/>
<path d="M106.026 102.22L129.468 80.5776L157.293 96.172L143.941 67.1922L167.417 45.5502L135.719 49.2873L122.673 20.9525L122.367 20.2731L122.198 21.0209L116.116 51.5979L84.418 55.335L112.243 70.9294L106.026 102.22Z" fill="white"/>
<path d="M284.491 81.1875L307.933 59.5461L335.792 75.1398L322.44 46.16L345.883 24.4841L314.184 28.2213L301.138 -0.0790212L300.832 -0.758509L300.697 -0.0451795L294.581 30.5318L262.883 34.269L290.742 49.8972L284.491 81.1875Z" fill="white"/>
<path d="M462.964 60.1592L486.441 38.4839L514.266 54.1121L500.914 25.0979L524.356 3.45577L492.658 7.19295L481.616 -16.7928H478.321L473.089 9.50348L441.391 13.2407L469.216 28.835L462.964 60.1592Z" fill="white"/>
<path d="M641.459 39.0947L664.902 17.4533L692.727 33.0477L679.375 4.06725L702.002 -16.7932H696.192L671.153 -13.8715L669.794 -16.7932H652.603L651.55 -11.561L619.852 -7.8238L647.677 7.80443L641.459 39.0947Z" fill="white"/>
<path d="M87.1687 132.559L55.4703 136.296L42.1184 107.317L35.9012 138.607L4.20312 142.344L8.72165 144.858L32.028 157.939L25.8107 189.263L49.2531 167.587L77.0782 183.216L63.7263 154.201L83.3973 136.059L87.1687 132.559Z" fill="white"/>
<path d="M210.527 136.908L204.276 168.198L227.718 146.557L255.577 162.151L242.225 133.171L261.862 115.028L265.667 111.495L233.969 115.232L220.617 86.2522L214.366 117.576L182.668 121.314L187.186 123.828L210.527 136.908Z" fill="white"/>
<path d="M389.001 115.877L382.75 147.167L406.226 125.492L434.051 141.12L420.699 112.106L440.336 93.9632L444.141 90.4642L412.443 94.2014L399.091 65.221L392.874 96.5113L361.176 100.248L365.66 102.763L389.001 115.877Z" fill="white"/>
<path d="M567.465 94.8122L561.248 126.103L584.691 104.461L612.516 120.055L599.164 91.0751L618.835 72.9326L622.606 69.4336L590.908 73.1708L577.556 44.1565L571.339 75.4807L539.641 79.2179L544.159 81.7321L567.465 94.8122Z" fill="white"/>
<path d="M745.964 73.7494L739.713 105.074L763.155 83.4321L791.014 99.0265L777.663 70.0122L797.3 51.8698L801.105 48.3708L769.407 52.108L756.055 23.1276L749.804 54.4178L718.105 58.155L722.624 60.6693L745.964 73.7494Z" fill="white"/>
<path d="M-28.75 254.595L-21.1399 258.876L-0.890972 270.224L-6.90451 257.177L-14.2428 241.209L9.19949 219.568L-22.4989 223.305L-35.8508 194.325L-42 225.208V261.322V266.86L-35.1371 260.507L-28.75 254.595Z" fill="white"/>
<path d="M155.975 202.24L142.622 173.26L136.405 204.55L104.707 208.288L132.532 223.916L129.101 241.141L126.281 255.206L143.336 239.476L149.757 233.565L157.334 237.811L177.582 249.159L171.603 236.147L164.23 220.179L187.673 198.503L155.975 202.24Z" fill="white"/>
<path d="M334.469 181.209L321.117 152.228L314.866 183.518L283.168 187.256L311.027 202.85L307.562 220.109L304.776 234.175L321.797 218.411L328.218 212.499L335.828 216.78L356.043 228.127L350.064 215.081L342.725 199.113L366.167 177.471L334.469 181.209Z" fill="white"/>
<path d="M512.934 160.179L499.582 131.165L493.331 162.455L461.633 166.192L489.492 181.82L486.061 199.046L483.241 213.111L500.296 197.381L506.683 191.469L514.293 195.716L534.542 207.064L528.529 194.051L521.19 178.083L544.633 156.408L512.934 160.179Z" fill="white"/>
<path d="M691.408 139.116L678.056 110.135L671.839 141.426L640.141 145.164L667.966 160.757L664.534 178.016L661.714 192.082L678.77 176.352L685.191 170.406L692.767 174.687L713.016 186.034L707.036 172.988L699.664 157.02L723.106 135.379L691.408 139.116Z" fill="white"/>
<path d="M46.5064 341.535L69.9487 319.859L97.8077 335.487L84.4558 306.473L107.898 284.832L76.1998 288.569L62.8479 259.588L56.5968 290.879L24.8984 294.616L52.7575 310.21L46.5064 341.535Z" fill="white"/>
<path d="M241.31 238.525L235.059 269.815L203.395 273.552L231.22 289.181L224.968 320.472L248.411 298.83L276.27 314.424L262.918 285.444L286.36 263.802L254.662 267.539L241.31 238.525Z" fill="white"/>
<path d="M419.817 217.494L413.565 248.785L381.867 252.522L409.692 268.116L403.475 299.44L426.917 277.764L454.742 293.393L441.39 264.378L464.833 242.737L433.169 246.474L419.817 217.494Z" fill="white"/>
<path d="M598.282 196.429L592.03 227.754L560.332 231.491L588.191 247.086L581.94 278.376L605.382 256.734L633.241 272.328L619.889 243.348L643.332 221.706L611.633 225.444L598.282 196.429Z" fill="white"/>
<path d="M790.107 204.38L776.755 175.401L770.538 206.691L738.84 210.428L766.665 226.056L760.414 257.347L783.856 235.671L811.715 251.299L798.363 222.319L821.805 200.643L790.107 204.38Z" fill="white"/>
<path d="M70.4845 469.007L65.9321 491.906L89.3745 470.23L117.199 485.859L107.449 464.658L103.847 456.844L127.324 435.203L95.6256 438.94L82.2737 409.926L76.0223 441.251L44.3242 444.988L72.1494 460.581L70.4845 469.007Z" fill="white"/>
<path d="M248.961 447.979L244.409 470.844L267.851 449.202L295.71 464.796L285.959 443.596L282.358 435.816L305.801 414.14L274.102 417.878L260.75 388.897L254.499 420.188L222.801 423.925L250.66 439.553L248.961 447.979Z" fill="white"/>
<path d="M427.457 426.913L422.871 449.812L446.347 428.136L474.172 443.764L464.421 422.564L460.82 414.75L484.262 393.108L452.564 396.845L439.212 367.831L432.995 399.156L401.297 402.893L429.122 418.487L427.457 426.913Z" fill="white"/>
<path d="M605.922 405.882L601.37 428.747L624.812 407.106L652.637 422.699L642.886 401.534L639.285 393.72L662.761 372.044L631.063 375.781L617.711 346.801L611.46 378.091L579.762 381.829L607.587 397.457L605.922 405.882Z" fill="white"/>
<path d="M809.536 354.753L796.184 325.773L789.933 357.063L758.234 360.8L786.093 376.395L784.395 384.82L779.842 407.719L803.285 386.043L831.144 401.672L821.393 380.472L817.792 372.657L841.234 351.015L809.536 354.753Z" fill="white"/>
<path d="M111.395 591.519L104.023 575.551L98.0432 562.539L95.2573 576.57L91.7918 593.83L60.0938 597.567L87.9528 613.161L81.7013 644.485L105.144 622.81L133.003 638.438L119.651 609.424L143.093 587.782L111.395 591.519Z" fill="white"/>
<path d="M289.865 570.489L282.527 554.488L276.547 541.476L273.727 555.541L270.296 572.8L238.598 576.537L266.423 592.132L260.206 623.422L283.648 601.78L311.473 617.374L298.121 588.394L321.563 566.752L289.865 570.489Z" fill="white"/>
<path d="M468.364 549.423L460.991 533.455L455.012 520.444L452.192 534.475L448.761 551.734L417.062 555.471L444.922 571.099L438.67 602.39L462.112 580.714L489.971 596.343L476.62 567.362L500.062 545.686L468.364 549.423Z" fill="white"/>
<path d="M646.838 528.393L639.499 512.391L633.486 499.379L630.7 513.445L627.268 530.703L595.57 534.441L623.395 550.035L617.144 581.325L640.586 559.684L668.445 575.278L655.094 546.298L678.536 524.656L646.838 528.393Z" fill="white"/>
<path d="M825.303 507.331L817.964 491.363L811.985 478.351L809.165 492.383L805.734 509.641L774.035 513.378L801.86 529.007L795.643 560.297L819.085 538.655L846.91 554.25L833.558 525.269L857.001 503.594L825.303 507.331Z" fill="white"/>
<path d="M-33.9142 426.572L-10.4718 404.931L17.3533 420.525L4.00114 391.545L27.4435 369.869L-4.25457 373.606L-6.97252 367.661L-17.6064 344.626L-22.5666 369.495L-23.8237 375.917L-42 378.057V387.23L-27.6969 395.282L-33.9142 426.572Z" fill="white"/>
<path d="M171.495 346.632L160.895 323.563L155.934 348.466L154.643 354.887L122.945 358.624L150.804 374.218L144.553 405.509L167.995 383.867L195.854 399.462L182.502 370.481L205.945 348.84L174.247 352.577L171.495 346.632Z" fill="white"/>
<path d="M349.991 325.568L339.357 302.533L334.397 327.402L333.14 333.824L301.441 337.561L329.267 353.189L323.015 384.479L346.457 362.838L374.317 378.432L360.965 349.452L384.407 327.777L352.709 331.514L349.991 325.568Z" fill="white"/>
<path d="M528.467 304.536L517.867 281.502L512.873 306.371L511.616 312.792L479.918 316.529L507.743 332.123L501.526 363.448L524.968 341.772L552.793 357.401L539.441 328.386L562.883 306.745L531.185 310.482L528.467 304.536Z" fill="white"/>
<path d="M709.684 289.418L706.932 283.472L696.332 260.437L691.372 285.341L690.081 291.727L658.383 295.465L686.242 311.093L679.99 342.384L703.433 320.742L731.292 336.336L717.94 307.356L741.382 285.68L709.684 289.418Z" fill="white"/>
<path d="M13.1764 525.777L-0.175522 496.763L-6.42661 528.087L-38.125 531.825L-10.266 547.419L-16.5171 578.743L6.92526 557.067L34.7843 572.695L21.4324 543.682L44.8747 522.04L13.1764 525.777Z" fill="white"/>
<path d="M191.643 504.712L178.29 475.733L172.039 507.023L140.375 510.76L168.2 526.388L161.949 557.679L185.391 536.037L213.25 551.631L199.898 522.651L223.341 500.975L191.643 504.712Z" fill="white"/>
<path d="M370.111 483.683L356.793 454.67L350.542 485.994L318.844 489.731L346.669 505.325L340.452 536.649L363.894 514.974L391.719 530.602L378.367 501.588L401.809 479.946L370.111 483.683Z" fill="white"/>
<path d="M548.61 462.62L535.258 433.64L529.007 464.93L497.309 468.667L525.168 484.296L518.917 515.586L542.359 493.945L570.218 509.539L556.866 480.558L580.308 458.883L548.61 462.62Z" fill="white"/>
<path d="M727.08 441.588L713.728 412.608L707.511 443.898L675.812 447.635L703.638 463.23L697.386 494.554L720.829 472.878L748.688 488.507L735.336 459.492L758.778 437.851L727.08 441.588Z" fill="white"/>
</g>
<defs>
<clipPath id="clip0_91_389">
<rect width="1920" height="1200" fill="white"/>
</clipPath>
</defs>
</svg>
